<svg width="1200" height="900" viewBox="0 0 1200 900" fill="none" xmlns="http://www.w3.org/2000/svg">
  <rect width="1200" height="900" fill="#EFE1D2"/>
  <rect width="1200" height="900" fill="url(#sky)"/>
  <circle cx="914" cy="198" r="108" fill="#FFF4E7" opacity="0.82"/>
  <path d="M0 639C112 591 227 566 345 566C487 566 596 645 735 645C863 645 970 576 1089 576C1128 576 1165 582 1200 594V900H0V639Z" fill="#D6C0A7"/>
  <path d="M0 705C148 660 288 639 428 639C570 639 703 724 845 724C967 724 1070 661 1200 661V900H0V705Z" fill="#B79775"/>
  <path d="M168 900C217 708 302 587 403 587C505 587 591 708 639 900H168Z" fill="#4C6A57"/>
  <path d="M256 900C291 783 349 714 418 714C489 714 548 783 584 900H256Z" fill="#61806A"/>
  <path d="M807 900C848 748 918 649 1004 649C1089 649 1159 748 1200 900H807Z" fill="#556F5E"/>
  <path d="M873 900C899 810 944 756 995 756C1049 756 1092 810 1121 900H873Z" fill="#6E8773"/>
  <path d="M436 786C474 786 508 754 525 734C542 754 576 786 614 786C672 786 716 736 716 676C716 617 673 574 619 574C575 574 540 603 525 641C510 603 475 574 431 574C378 574 334 617 334 676C334 736 378 786 436 786Z" fill="#FFF5EC" opacity="0.9"/>
  <path d="M525 342C535 279 580 232 638 232C706 232 761 289 761 358C761 447 676 490 600 557C523 490 439 447 439 358C439 289 493 232 561 232C620 232 665 279 675 342" fill="#E9D2BF" opacity="0.86"/>
  <defs>
    <linearGradient id="sky" x1="600" y1="0" x2="600" y2="900" gradientUnits="userSpaceOnUse">
      <stop stop-color="#FFF8F1"/>
      <stop offset="1" stop-color="#ECD8C2"/>
    </linearGradient>
  </defs>
</svg>
